<svg width="151" height="31" viewBox="0 0 151 31" fill="none" xmlns="http://www.w3.org/2000/svg">
<path d="M7.77674 18.3293C7.01932 18.3293 6.3145 18.2451 5.66228 18.0768L4.4946 19.2445C4.85227 19.4338 5.33617 19.5916 5.94632 19.7179C6.55646 19.8441 7.54531 19.9703 8.91287 20.0966C10.9958 20.2859 12.5106 20.7803 13.4574 21.5798C14.4041 22.3793 14.8775 23.4839 14.8775 24.8935C14.8775 25.8193 14.6251 26.6924 14.1201 27.5129C13.6152 28.3545 12.8367 29.0278 11.7847 29.5327C10.7328 30.0587 9.38625 30.3217 7.74518 30.3217C5.51501 30.3217 3.71614 29.9009 2.34858 29.0593C0.981023 28.2388 0.297244 26.9975 0.297244 25.3354C0.297244 23.9257 0.981023 22.7054 2.34858 21.6745C1.9278 21.4852 1.55961 21.2853 1.24402 21.0749C0.949464 20.8645 0.686472 20.6436 0.455039 20.4122V19.6863L3.20068 16.7829C1.98039 15.7099 1.37025 14.3318 1.37025 12.6486C1.37025 11.5967 1.62272 10.6394 2.12767 9.77675C2.65365 8.91414 3.39003 8.23036 4.3368 7.72542C5.28358 7.22047 6.43022 6.968 7.77674 6.968C8.66039 6.968 9.48093 7.09423 10.2383 7.34671H16.1714V9.80831L13.4889 9.99767C13.9097 10.7972 14.1201 11.6808 14.1201 12.6486C14.1201 13.7006 13.8676 14.6579 13.3627 15.5205C12.8577 16.3831 12.1214 17.0669 11.1536 17.5718C10.2068 18.0768 9.08118 18.3293 7.77674 18.3293ZM7.77674 15.2365C8.59728 15.2365 9.27054 15.0156 9.79652 14.5737C10.3435 14.1319 10.6171 13.5007 10.6171 12.6802C10.6171 11.8597 10.3435 11.2285 9.79652 10.7866C9.27054 10.3448 8.59728 10.1239 7.77674 10.1239C6.91413 10.1239 6.21983 10.3448 5.69384 10.7866C5.16786 11.2285 4.90487 11.8597 4.90487 12.6802C4.90487 13.5007 5.16786 14.1319 5.69384 14.5737C6.21983 15.0156 6.91413 15.2365 7.77674 15.2365ZM3.98965 24.9251C3.98965 25.7036 4.34732 26.2821 5.06266 26.6609C5.79904 27.0606 6.69321 27.2605 7.74518 27.2605C8.75507 27.2605 9.57561 27.0501 10.2068 26.6293C10.838 26.2295 11.1536 25.6825 11.1536 24.9882C11.1536 24.4202 10.9432 23.9468 10.5224 23.5681C10.1226 23.1894 9.31262 22.9579 8.09233 22.8738C7.22972 22.8106 6.43022 22.716 5.69384 22.5897C5.0837 22.9264 4.64187 23.2946 4.36836 23.6943C4.11589 24.094 3.98965 24.5043 3.98965 24.9251ZM24.2128 23.3787C22.6349 23.3787 21.2358 23.0421 20.0155 22.3688C18.7952 21.6956 17.8379 20.7488 17.1436 19.5285C16.4493 18.3082 16.1022 16.8986 16.1022 15.2996C16.1022 13.6796 16.4388 12.2384 17.1121 10.976C17.8064 9.71364 18.7531 8.73531 19.9524 8.04101C21.1727 7.32567 22.6033 6.968 24.2444 6.968C25.7803 6.968 27.1373 7.30463 28.3155 7.97789C29.4937 8.65115 30.4089 9.57688 31.0612 10.7551C31.7344 11.9123 32.0711 13.2062 32.0711 14.6368C32.0711 14.8683 32.0605 15.1102 32.0395 15.3627C32.0395 15.6152 32.029 15.8782 32.0079 16.1517H20.1102C20.1943 17.372 20.6151 18.3293 21.3725 19.0236C22.151 19.7179 23.0872 20.065 24.1813 20.065C25.0018 20.065 25.6856 19.8862 26.2326 19.5285C26.8007 19.1498 27.2215 18.6659 27.495 18.0768H31.5977C31.3031 19.0656 30.8087 19.9703 30.1144 20.7909C29.4411 21.5904 28.5996 22.2215 27.5897 22.6844C26.6008 23.1473 25.4752 23.3787 24.2128 23.3787ZM24.2444 10.2501C23.2556 10.2501 22.3824 10.5342 21.625 11.1022C20.8676 11.6493 20.3837 12.4908 20.1733 13.627H27.9684C27.9053 12.596 27.5265 11.7755 26.8322 11.1654C26.1379 10.5552 25.2753 10.2501 24.2444 10.2501ZM40.2722 23C38.6311 23 37.3162 22.6003 36.3273 21.8008C35.3385 21.0013 34.8441 19.5811 34.8441 17.5403V10.7235H32.1615V7.34671H34.8441L35.3174 3.14935H38.8836V7.34671H43.1125V10.7235H38.8836V17.5718C38.8836 18.3293 39.0414 18.8552 39.357 19.1498C39.6936 19.4233 40.2617 19.5601 41.0612 19.5601H43.0179V23H40.2722ZM57.3499 23C55.7088 23 54.3938 22.6003 53.405 21.8008C52.4161 21.0013 51.9217 19.5811 51.9217 17.5403V10.7235H49.2392V7.34671H51.9217L52.3951 3.14935H55.9613V7.34671H60.1902V10.7235H55.9613V17.5718C55.9613 18.3293 56.1191 18.8552 56.4346 19.1498C56.7713 19.4233 57.3393 19.5601 58.1388 19.5601H60.0955V23H57.3499ZM68.8753 23.3787C67.3605 23.3787 65.9929 23.0316 64.7726 22.3373C63.5734 21.643 62.6161 20.6857 61.9008 19.4654C61.2065 18.2241 60.8593 16.7934 60.8593 15.1734C60.8593 13.5533 61.217 12.1332 61.9323 10.9129C62.6477 9.67156 63.605 8.70375 64.8042 8.00945C66.0245 7.31515 67.392 6.968 68.9069 6.968C70.4007 6.968 71.7472 7.31515 72.9464 8.00945C74.1667 8.70375 75.124 9.67156 75.8183 10.9129C76.5337 12.1332 76.8913 13.5533 76.8913 15.1734C76.8913 16.7934 76.5337 18.2241 75.8183 19.4654C75.124 20.6857 74.1667 21.643 72.9464 22.3373C71.7262 23.0316 70.3691 23.3787 68.8753 23.3787ZM68.8753 19.8757C69.9273 19.8757 70.8425 19.4864 71.621 18.708C72.3994 17.9085 72.7886 16.7303 72.7886 15.1734C72.7886 13.6164 72.3994 12.4488 71.621 11.6703C70.8425 10.8708 69.9378 10.4711 68.9069 10.4711C67.8339 10.4711 66.9081 10.8708 66.1297 11.6703C65.3723 12.4488 64.9936 13.6164 64.9936 15.1734C64.9936 16.7303 65.3723 17.9085 66.1297 18.708C66.9081 19.4864 67.8234 19.8757 68.8753 19.8757ZM87.3588 23L82.7828 7.34671H86.7908L89.5048 18.6133L92.6607 7.34671H97.1421L100.298 18.6133L103.044 7.34671H107.052L102.444 23H98.2467L94.9014 11.2916L91.5562 23H87.3588ZM114.663 23.3787C113.148 23.3787 111.781 23.0316 110.56 22.3373C109.361 21.643 108.404 20.6857 107.689 19.4654C106.994 18.2241 106.647 16.7934 106.647 15.1734C106.647 13.5533 107.005 12.1332 107.72 10.9129C108.435 9.67156 109.393 8.70375 110.592 8.00945C111.812 7.31515 113.18 6.968 114.695 6.968C116.188 6.968 117.535 7.31515 118.734 8.00945C119.954 8.70375 120.912 9.67156 121.606 10.9129C122.321 12.1332 122.679 13.5533 122.679 15.1734C122.679 16.7934 122.321 18.2241 121.606 19.4654C120.912 20.6857 119.954 21.643 118.734 22.3373C117.514 23.0316 116.157 23.3787 114.663 23.3787ZM114.663 19.8757C115.715 19.8757 116.63 19.4864 117.409 18.708C118.187 17.9085 118.576 16.7303 118.576 15.1734C118.576 13.6164 118.187 12.4488 117.409 11.6703C116.63 10.8708 115.726 10.4711 114.695 10.4711C113.622 10.4711 112.696 10.8708 111.917 11.6703C111.16 12.4488 110.781 13.6164 110.781 15.1734C110.781 16.7303 111.16 17.9085 111.917 18.708C112.696 19.4864 113.611 19.8757 114.663 19.8757ZM124.397 23V7.34671H127.995L128.374 10.2817C128.942 9.27181 129.71 8.47231 130.678 7.88321C131.666 7.27307 132.824 6.968 134.149 6.968V11.2285H133.013C132.129 11.2285 131.34 11.3652 130.646 11.6387C129.952 11.9123 129.405 12.3856 129.005 13.0589C128.626 13.7322 128.437 14.6684 128.437 15.8677V23H124.397ZM135.016 23V0.277478H139.056V13.6901L144.61 7.34671H149.407L143.001 14.4791L150.449 23H145.399L139.056 15.1418V23H135.016Z" fill="#0D114F"/>
<path d="M46.423 23.2209C45.6866 23.2209 45.0765 22.9895 44.5926 22.5266C44.1297 22.0637 43.8983 21.5062 43.8983 20.854C43.8983 20.1807 44.1297 19.6127 44.5926 19.1498C45.0765 18.6869 45.6866 18.4555 46.423 18.4555C47.1594 18.4555 47.759 18.6869 48.2219 19.1498C48.7058 19.6127 48.9478 20.1807 48.9478 20.854C48.9478 21.5062 48.7058 22.0637 48.2219 22.5266C47.759 22.9895 47.1594 23.2209 46.423 23.2209ZM80.3453 23.2209C79.6089 23.2209 78.9988 22.9895 78.5149 22.5266C78.052 22.0637 77.8206 21.5062 77.8206 20.854C77.8206 20.1807 78.052 19.6127 78.5149 19.1498C78.9988 18.6869 79.6089 18.4555 80.3453 18.4555C81.0817 18.4555 81.6813 18.6869 82.1442 19.1498C82.6281 19.6127 82.87 20.1807 82.87 20.854C82.87 21.5062 82.6281 22.0637 82.1442 22.5266C81.6813 22.9895 81.0817 23.2209 80.3453 23.2209Z" fill="#5498FF"/>
</svg>
