<svg width="250" height="64" viewBox="0 0 250 64" fill="none" xmlns="http://www.w3.org/2000/svg">
<rect y="10.084" width="43.832" height="43.832" rx="7.88976" fill="url(#paint0_linear_5_118)"/>
<g filter="url(#filter0_di_5_118)">
<path d="M33.258 42.497H29.3488C29.1853 42.497 29.0508 42.3694 29.0363 42.2065C29.0317 42.155 29.0268 42.1051 29.0215 42.0566C28.7974 40.0138 26.5983 38.2592 24.5583 38.5078C23.0693 38.6892 21.8351 39.8133 20.3445 39.9816C19.3393 40.095 18.4621 40.0434 17.4596 39.8469C16.5809 39.6747 15.7327 39.3596 14.952 38.9212C13.1132 37.8884 12.126 36.8249 11.2107 35.2227C10.681 34.2953 10.303 33.2798 10.1655 32.2207C10.0517 31.3442 10.0589 30.5719 10.1545 29.7213C10.3004 28.4219 10.7168 27.1571 11.3964 26.04C12.3505 24.4717 13.3816 23.4965 15.0616 22.5837C15.7732 22.1971 16.5387 21.9144 17.3297 21.7407C19.3324 21.3009 20.629 21.4298 22.5759 22.04C23.6591 22.3795 24.8356 23.1069 25.8362 24.0562C28.0243 26.1321 28.1912 29.3898 28.2465 32.4055C28.2516 32.685 27.9961 32.8964 27.721 32.8467C26.3697 32.6023 25.3982 32.5827 24.0703 32.7938C23.7143 32.8504 23.4215 32.4819 23.5175 32.1345C23.5592 31.9838 23.5918 31.8358 23.6163 31.6898C24.0088 29.3551 22.4112 26.69 20.0548 26.4603C18.718 26.33 17.3944 26.8758 16.4139 27.9704C15.8287 28.5221 15.505 29.3874 15.4029 30.3101C15.1383 32.7012 17.0941 35.0135 19.4971 35.1278C19.9556 35.1496 20.3982 35.083 20.8506 34.9297C22.276 34.4465 23.6654 33.7244 25.1662 33.8374C29.6813 34.1774 32.8523 36.2128 33.6867 42.0058C33.7241 42.2654 33.5204 42.497 33.258 42.497Z" fill="#FAFAFA"/>
</g>
<path d="M65.804 38.528H58.468L57.292 42H52.28L59.392 22.344H64.936L72.048 42H66.98L65.804 38.528ZM64.572 34.832L62.136 27.636L59.728 34.832H64.572ZM79.0005 28.588C79.4672 27.86 80.1112 27.272 80.9325 26.824C81.7539 26.376 82.7152 26.152 83.8165 26.152C85.1045 26.152 86.2712 26.4787 87.3165 27.132C88.3619 27.7853 89.1832 28.7187 89.7805 29.932C90.3965 31.1453 90.7045 32.5547 90.7045 34.16C90.7045 35.7653 90.3965 37.184 89.7805 38.416C89.1832 39.6293 88.3619 40.572 87.3165 41.244C86.2712 41.8973 85.1045 42.224 83.8165 42.224C82.7339 42.224 81.7725 42 80.9325 41.552C80.1112 41.104 79.4672 40.5253 79.0005 39.816V49.448H74.2125V26.376H79.0005V28.588ZM85.8325 34.16C85.8325 32.9653 85.4965 32.032 84.8245 31.36C84.1712 30.6693 83.3592 30.324 82.3885 30.324C81.4365 30.324 80.6245 30.6693 79.9525 31.36C79.2992 32.0507 78.9725 32.9933 78.9725 34.188C78.9725 35.3827 79.2992 36.3253 79.9525 37.016C80.6245 37.7067 81.4365 38.052 82.3885 38.052C83.3405 38.052 84.1525 37.7067 84.8245 37.016C85.4965 36.3067 85.8325 35.3547 85.8325 34.16ZM98.0045 28.588C98.4711 27.86 99.1151 27.272 99.9365 26.824C100.758 26.376 101.719 26.152 102.82 26.152C104.108 26.152 105.275 26.4787 106.32 27.132C107.366 27.7853 108.187 28.7187 108.784 29.932C109.4 31.1453 109.708 32.5547 109.708 34.16C109.708 35.7653 109.4 37.184 108.784 38.416C108.187 39.6293 107.366 40.572 106.32 41.244C105.275 41.8973 104.108 42.224 102.82 42.224C101.738 42.224 100.776 42 99.9365 41.552C99.1151 41.104 98.4711 40.5253 98.0045 39.816V49.448H93.2165V26.376H98.0045V28.588ZM104.836 34.16C104.836 32.9653 104.5 32.032 103.828 31.36C103.175 30.6693 102.363 30.324 101.392 30.324C100.44 30.324 99.6285 30.6693 98.9565 31.36C98.3031 32.0507 97.9765 32.9933 97.9765 34.188C97.9765 35.3827 98.3031 36.3253 98.9565 37.016C99.6285 37.7067 100.44 38.052 101.392 38.052C102.344 38.052 103.156 37.7067 103.828 37.016C104.5 36.3067 104.836 35.3547 104.836 34.16ZM124.12 31.92C125.259 32.1627 126.174 32.732 126.864 33.628C127.555 34.5053 127.9 35.5133 127.9 36.652C127.9 38.2947 127.322 39.6013 126.164 40.572C125.026 41.524 123.43 42 121.376 42H112.22V22.344H121.068C123.066 22.344 124.624 22.8013 125.744 23.716C126.883 24.6307 127.452 25.872 127.452 27.44C127.452 28.5973 127.144 29.5587 126.528 30.324C125.931 31.0893 125.128 31.6213 124.12 31.92ZM117.008 30.296H120.144C120.928 30.296 121.526 30.128 121.936 29.792C122.366 29.4373 122.58 28.924 122.58 28.252C122.58 27.58 122.366 27.0667 121.936 26.712C121.526 26.3573 120.928 26.18 120.144 26.18H117.008V30.296ZM120.536 38.136C121.339 38.136 121.955 37.9587 122.384 37.604C122.832 37.2307 123.056 36.6987 123.056 36.008C123.056 35.3173 122.823 34.776 122.356 34.384C121.908 33.992 121.283 33.796 120.48 33.796H117.008V38.136H120.536ZM146.105 26.376V42H141.317V39.872C140.832 40.5627 140.169 41.1227 139.329 41.552C138.508 41.9627 137.593 42.168 136.585 42.168C135.391 42.168 134.336 41.9067 133.421 41.384C132.507 40.8427 131.797 40.068 131.293 39.06C130.789 38.052 130.537 36.8667 130.537 35.504V26.376H135.297V34.86C135.297 35.9053 135.568 36.7173 136.109 37.296C136.651 37.8747 137.379 38.164 138.293 38.164C139.227 38.164 139.964 37.8747 140.505 37.296C141.047 36.7173 141.317 35.9053 141.317 34.86V26.376H146.105ZM155.901 42.224C154.538 42.224 153.325 41.9907 152.261 41.524C151.197 41.0573 150.357 40.4227 149.741 39.62C149.125 38.7987 148.779 37.884 148.705 36.876H153.437C153.493 37.4173 153.745 37.856 154.193 38.192C154.641 38.528 155.191 38.696 155.845 38.696C156.442 38.696 156.899 38.584 157.217 38.36C157.553 38.1173 157.721 37.8093 157.721 37.436C157.721 36.988 157.487 36.6613 157.021 36.456C156.554 36.232 155.798 35.9893 154.753 35.728C153.633 35.4667 152.699 35.196 151.953 34.916C151.206 34.6173 150.562 34.16 150.021 33.544C149.479 32.9093 149.209 32.06 149.209 30.996C149.209 30.1 149.451 29.288 149.937 28.56C150.441 27.8133 151.169 27.2253 152.121 26.796C153.091 26.3667 154.239 26.152 155.565 26.152C157.525 26.152 159.065 26.6373 160.185 27.608C161.323 28.5787 161.977 29.8667 162.145 31.472H157.721C157.646 30.9307 157.403 30.5013 156.993 30.184C156.601 29.8667 156.078 29.708 155.425 29.708C154.865 29.708 154.435 29.82 154.137 30.044C153.838 30.2493 153.689 30.5387 153.689 30.912C153.689 31.36 153.922 31.696 154.389 31.92C154.874 32.144 155.621 32.368 156.629 32.592C157.786 32.8907 158.729 33.1893 159.457 33.488C160.185 33.768 160.819 34.2347 161.361 34.888C161.921 35.5227 162.21 36.3813 162.229 37.464C162.229 38.3787 161.967 39.2 161.445 39.928C160.941 40.6373 160.203 41.1973 159.233 41.608C158.281 42.0187 157.17 42.224 155.901 42.224ZM167.566 24.752C166.726 24.752 166.035 24.5093 165.494 24.024C164.971 23.52 164.71 22.904 164.71 22.176C164.71 21.4293 164.971 20.8133 165.494 20.328C166.035 19.824 166.726 19.572 167.566 19.572C168.387 19.572 169.059 19.824 169.582 20.328C170.123 20.8133 170.394 21.4293 170.394 22.176C170.394 22.904 170.123 23.52 169.582 24.024C169.059 24.5093 168.387 24.752 167.566 24.752ZM169.946 26.376V42H165.158V26.376H169.946ZM182.936 26.208C184.765 26.208 186.221 26.8053 187.304 28C188.405 29.176 188.956 30.8 188.956 32.872V42H184.196V33.516C184.196 32.4707 183.925 31.6587 183.384 31.08C182.842 30.5013 182.114 30.212 181.2 30.212C180.285 30.212 179.557 30.5013 179.016 31.08C178.474 31.6587 178.204 32.4707 178.204 33.516V42H173.416V26.376H178.204V28.448C178.689 27.7573 179.342 27.216 180.164 26.824C180.985 26.4133 181.909 26.208 182.936 26.208ZM207.011 33.936C207.011 34.384 206.983 34.8507 206.927 35.336H196.091C196.166 36.3067 196.474 37.0533 197.015 37.576C197.575 38.08 198.256 38.332 199.059 38.332C200.254 38.332 201.084 37.828 201.551 36.82H206.647C206.386 37.8467 205.91 38.7707 205.219 39.592C204.547 40.4133 203.698 41.0573 202.671 41.524C201.644 41.9907 200.496 42.224 199.227 42.224C197.696 42.224 196.334 41.8973 195.139 41.244C193.944 40.5907 193.011 39.6573 192.339 38.444C191.667 37.2307 191.331 35.812 191.331 34.188C191.331 32.564 191.658 31.1453 192.311 29.932C192.983 28.7187 193.916 27.7853 195.111 27.132C196.306 26.4787 197.678 26.152 199.227 26.152C200.739 26.152 202.083 26.4693 203.259 27.104C204.435 27.7387 205.35 28.644 206.003 29.82C206.675 30.996 207.011 32.368 207.011 33.936ZM202.111 32.676C202.111 31.8547 201.831 31.2013 201.271 30.716C200.711 30.2307 200.011 29.988 199.171 29.988C198.368 29.988 197.687 30.2213 197.127 30.688C196.586 31.1547 196.25 31.8173 196.119 32.676H202.111ZM215.893 42.224C214.53 42.224 213.317 41.9907 212.253 41.524C211.189 41.0573 210.349 40.4227 209.733 39.62C209.117 38.7987 208.771 37.884 208.697 36.876H213.429C213.485 37.4173 213.737 37.856 214.185 38.192C214.633 38.528 215.183 38.696 215.837 38.696C216.434 38.696 216.891 38.584 217.209 38.36C217.545 38.1173 217.713 37.8093 217.713 37.436C217.713 36.988 217.479 36.6613 217.013 36.456C216.546 36.232 215.79 35.9893 214.745 35.728C213.625 35.4667 212.691 35.196 211.945 34.916C211.198 34.6173 210.554 34.16 210.013 33.544C209.471 32.9093 209.201 32.06 209.201 30.996C209.201 30.1 209.443 29.288 209.929 28.56C210.433 27.8133 211.161 27.2253 212.113 26.796C213.083 26.3667 214.231 26.152 215.557 26.152C217.517 26.152 219.057 26.6373 220.177 27.608C221.315 28.5787 221.969 29.8667 222.137 31.472H217.713C217.638 30.9307 217.395 30.5013 216.985 30.184C216.593 29.8667 216.07 29.708 215.417 29.708C214.857 29.708 214.427 29.82 214.129 30.044C213.83 30.2493 213.681 30.5387 213.681 30.912C213.681 31.36 213.914 31.696 214.381 31.92C214.866 32.144 215.613 32.368 216.621 32.592C217.778 32.8907 218.721 33.1893 219.449 33.488C220.177 33.768 220.811 34.2347 221.353 34.888C221.913 35.5227 222.202 36.3813 222.221 37.464C222.221 38.3787 221.959 39.2 221.437 39.928C220.933 40.6373 220.195 41.1973 219.225 41.608C218.273 42.0187 217.162 42.224 215.893 42.224ZM231.506 42.224C230.143 42.224 228.93 41.9907 227.866 41.524C226.802 41.0573 225.962 40.4227 225.346 39.62C224.73 38.7987 224.385 37.884 224.31 36.876H229.042C229.098 37.4173 229.35 37.856 229.798 38.192C230.246 38.528 230.797 38.696 231.45 38.696C232.047 38.696 232.505 38.584 232.822 38.36C233.158 38.1173 233.326 37.8093 233.326 37.436C233.326 36.988 233.093 36.6613 232.626 36.456C232.159 36.232 231.403 35.9893 230.358 35.728C229.238 35.4667 228.305 35.196 227.558 34.916C226.811 34.6173 226.167 34.16 225.626 33.544C225.085 32.9093 224.814 32.06 224.814 30.996C224.814 30.1 225.057 29.288 225.542 28.56C226.046 27.8133 226.774 27.2253 227.726 26.796C228.697 26.3667 229.845 26.152 231.17 26.152C233.13 26.152 234.67 26.6373 235.79 27.608C236.929 28.5787 237.582 29.8667 237.75 31.472H233.326C233.251 30.9307 233.009 30.5013 232.598 30.184C232.206 29.8667 231.683 29.708 231.03 29.708C230.47 29.708 230.041 29.82 229.742 30.044C229.443 30.2493 229.294 30.5387 229.294 30.912C229.294 31.36 229.527 31.696 229.994 31.92C230.479 32.144 231.226 32.368 232.234 32.592C233.391 32.8907 234.334 33.1893 235.062 33.488C235.79 33.768 236.425 34.2347 236.966 34.888C237.526 35.5227 237.815 36.3813 237.834 37.464C237.834 38.3787 237.573 39.2 237.05 39.928C236.546 40.6373 235.809 41.1973 234.838 41.608C233.886 42.0187 232.775 42.224 231.506 42.224Z" fill="#0D114F"/>
<defs>
<filter id="filter0_di_5_118" x="8.4491" y="21.4803" width="26.8744" height="24.2814" filterUnits="userSpaceOnUse" color-interpolation-filters="sRGB">
<feFlood flood-opacity="0" result="BackgroundImageFix"/>
<feColorMatrix in="SourceAlpha" type="matrix" values="0 0 0 0 0 0 0 0 0 0 0 0 0 0 0 0 0 0 127 0" result="hardAlpha"/>
<feOffset dy="1.63237"/>
<feGaussianBlur stdDeviation="0.816183"/>
<feColorMatrix type="matrix" values="0 0 0 0 0 0 0 0 0 0 0 0 0 0 0 0 0 0 0.07 0"/>
<feBlend mode="normal" in2="BackgroundImageFix" result="effect1_dropShadow_5_118"/>
<feBlend mode="normal" in="SourceGraphic" in2="effect1_dropShadow_5_118" result="shape"/>
<feColorMatrix in="SourceAlpha" type="matrix" values="0 0 0 0 0 0 0 0 0 0 0 0 0 0 0 0 0 0 127 0" result="hardAlpha"/>
<feOffset dy="1.63237"/>
<feGaussianBlur stdDeviation="1.02023"/>
<feComposite in2="hardAlpha" operator="arithmetic" k2="-1" k3="1"/>
<feColorMatrix type="matrix" values="0 0 0 0 0.219608 0 0 0 0 0.533333 0 0 0 0 1 0 0 0 0.13 0"/>
<feBlend mode="normal" in2="shape" result="effect2_innerShadow_5_118"/>
</filter>
<linearGradient id="paint0_linear_5_118" x1="52.463" y1="-56.2237" x2="19.6129" y2="58.6221" gradientUnits="userSpaceOnUse">
<stop stop-color="#5498FF"/>
<stop offset="0.515625" stop-color="#428EFF"/>
<stop offset="1" stop-color="#297FFF"/>
</linearGradient>
</defs>
</svg>
